<?xml version="1.0" encoding="UTF-8" standalone="no"?>
<svg
   xmlns:dc="http://purl.org/dc/elements/1.1/"
   xmlns:cc="http://creativecommons.org/ns#"
   xmlns:rdf="http://www.w3.org/1999/02/22-rdf-syntax-ns#"
   xmlns:svg="http://www.w3.org/2000/svg"
   xmlns="http://www.w3.org/2000/svg"
   xmlns:sodipodi="http://sodipodi.sourceforge.net/DTD/sodipodi-0.dtd"
   xmlns:inkscape="http://www.inkscape.org/namespaces/inkscape"
   width="3000"
   height="753"
   viewBox="0 0 793.75 199.23174"
   version="1.1"
   id="svg18"
   sodipodi:docname="bg.svg"
   inkscape:version="1.0.1 (1.0.1+r74)">
  <metadata
     id="metadata24">
    <rdf:RDF>
      <cc:Work
         rdf:about="">
        <dc:format>image/svg+xml</dc:format>
        <dc:type
           rdf:resource="http://purl.org/dc/dcmitype/StillImage" />
        <dc:title></dc:title>
      </cc:Work>
    </rdf:RDF>
  </metadata>
  <defs
     id="defs22" />
  <sodipodi:namedview
     pagecolor="#ffffff"
     bordercolor="#666666"
     borderopacity="1"
     objecttolerance="10"
     gridtolerance="10"
     guidetolerance="10"
     inkscape:pageopacity="0"
     inkscape:pageshadow="2"
     inkscape:window-width="1609"
     inkscape:window-height="1101"
     id="namedview20"
     showgrid="false"
     inkscape:zoom="0.21966667"
     inkscape:cx="565.67411"
     inkscape:cy="878.72033"
     inkscape:window-x="0"
     inkscape:window-y="0"
     inkscape:window-maximized="0"
     inkscape:current-layer="g16"
     inkscape:document-rotation="0" />
  <style
     id="style2"><![CDATA[.B{stroke-opacity:.392}.C{stroke-width:.265}]]></style>
  <g
     fill="none"
     stroke="#142a3d"
     class="B"
     id="g16"
     style="stroke:#d3e0e9;stroke-width:0.44736;stroke-miterlimit:4;stroke-dasharray:none;stroke-opacity:1"
     transform="matrix(0.78857808,0,0,0.78857808,43.515922,111.67373)">
    <g
       class="C"
       id="g12"
       style="stroke:#d3e0e9;stroke-width:0.411256;stroke-miterlimit:4;stroke-dasharray:none;stroke-opacity:1"
       transform="matrix(1.0877884,0,0,1.0877884,-81.277101,-20.64846)">
      <path
         d="M 26.627,-108.765 V 17.4 m 10.48,-126.165 V 17.4 m 10.48,-126.165 V 17.4 m 10.48,-126.165 V 17.4 m 10.48,-126.165 V 17.4 m 10.48,-126.165 V 17.4 m 10.48,-126.165 V 17.4 m 10.48,-126.165 V 17.4 m 10.48,-126.165 V 17.4 m 10.48,-126.165 V 17.4 m 10.48,-126.165 V 17.4 m 10.48,-126.165 V 17.4 m 10.48,-126.165 V 17.4 m 10.48,-126.165 V 17.4 m 10.48,-126.165 V 17.4 m 10.48,-126.165 V 17.4 m 10.48,-126.165 V 17.4 m 10.48,-126.165 V 17.4 m 10.48,-126.165 V 17.4 m 10.48,-126.165 V 17.4 m 10.48,-126.165 V 17.4 m 10.48,-126.165 V 17.4 m 10.48,-126.165 V 17.4 m 10.48,-126.165 V 17.4 m 10.478,-126.165 V 17.4 m 10.48,-126.165 V 17.4 m 10.48,-126.165 V 17.4 m 10.48,-126.165 V 17.4 m 10.48,-126.165 V 17.4 m 10.48,-126.165 V 17.4 m 10.48,-126.165 V 17.4"
         id="path8"
         style="stroke:#d3e0e9;stroke-width:0.411256;stroke-miterlimit:4;stroke-dasharray:none;stroke-opacity:1" />
      <circle
         cx="425.24399"
         cy="5.3520002"
         r="60.039001"
         id="circle10"
         style="stroke:#d3e0e9;stroke-width:0.411256;stroke-miterlimit:4;stroke-dasharray:none;stroke-opacity:1" />
    </g>
    <path
       d="m 360.42263,77.983483 v 32.716287 m 6.2004,-32.716287 v 32.716287 m 6.18951,-32.716287 v 32.716287 m 6.18734,-32.716287 v 32.716287 m 6.17864,-32.716287 v 32.716287 m 6.20039,-32.716287 v 32.716287 m 6.18734,-32.716287 v 32.716287 m 6.2004,-32.716287 v 32.716287 m 6.18951,-32.716287 v 32.716287 m 6.18953,-32.716287 v 32.716287 m 6.18951,-32.716287 v 32.716287 m 6.18952,-32.716287 v 32.716287 m 6.20039,-32.716287 v 32.716287 m 6.18952,-32.716287 v 32.716287 m 6.18951,-32.716287 v 32.716287 m 6.18734,-32.716287 v 32.716287 m 6.2004,-32.716287 v 32.716287 m 6.20039,-32.716287 v 32.716287 m 6.2004,-32.716287 v 32.716287 m 6.18734,-32.716287 v 32.716287 m 6.18951,-32.716287 v 32.716287 m 6.18952,-32.716287 v 32.716287 m 6.18951,-32.716287 v 32.716287 m 6.2004,-32.716287 v 32.716287 m 6.18951,-32.716287 v 32.716287 m 6.18952,-32.716287 v 32.716287 m 6.18951,-32.716287 v 32.716287 m 6.18734,-32.716287 v 32.716287 m 6.2004,-32.716287 v 32.716287 m 6.20039,-32.716287 v 32.716287 m 6.2004,-32.716287 v 32.716287 m 6.18734,-32.716287 V 110.69977 M 162.3875,77.983483 v 32.716287 m 6.20039,-32.716287 v 32.716287 m 6.18735,-32.716287 v 32.716287 m 6.18951,-32.716287 v 32.716287 m 6.18951,-32.716287 v 32.716287 m 6.18952,-32.716287 v 32.716287 m 6.20039,-32.716287 v 32.716287 m 6.18952,-32.716287 v 32.716287 m 6.18951,-32.716287 v 32.716287 m 6.18952,-32.716287 v 32.716287 m 6.18734,-32.716287 v 32.716287 m 6.20039,-32.716287 v 32.716287 m 6.2004,-32.716287 v 32.716287 m 6.20039,-32.716287 v 32.716287 m 6.18734,-32.716287 v 32.716287 m 6.18952,-32.716287 v 32.716287 m 6.20039,-32.716287 v 32.716287 m 6.18952,-32.716287 v 32.716287 m 6.18951,-32.716287 v 32.716287 m 6.18952,-32.716287 v 32.716287 m 6.18951,-32.716287 v 32.716287 m 6.18953,-32.716287 v 32.716287 m 6.20038,-32.716287 v 32.716287 m 6.18734,-32.716287 v 32.716287 m 6.2004,-32.716287 v 32.716287 m 6.20039,-32.716287 v 32.716287 m 6.18734,-32.716287 v 32.716287 m 6.2004,-32.716287 v 32.716287 m 6.18951,-32.716287 v 32.716287 m 6.18952,-32.716287 v 32.716287 m 6.18952,-32.716287 v 32.716287 m 6.18951,-32.716287 V 110.69977 M 756.49401,77.983483 v 32.716287 m 6.20039,-32.716287 v 32.716287 m 6.2004,-32.716287 v 32.716287 m 6.20038,-32.716287 v 32.716287 m 6.18734,-32.716287 v 32.716287 m 6.18953,-32.716287 v 32.716287 m 6.18951,-32.716287 v 32.716287 m 6.18952,-32.716287 v 32.716287 m 6.18951,-32.716287 v 32.716287 m 6.20039,-32.716287 v 32.716287 m 6.18952,-32.716287 v 32.716287 m 6.18951,-32.716287 v 32.716287 m 6.18734,-32.716287 v 32.716287 m 6.2004,-32.716287 v 32.716287 m 6.17863,-32.716287 v 32.716287 m 6.2004,-32.716287 v 32.716287 m 6.18734,-32.716287 v 32.716287 m 6.18951,-32.716287 v 32.716287 m 6.18952,-32.716287 v 32.716287 m 6.18952,-32.716287 v 32.716287 m 6.2004,-32.716287 v 32.716287 m 6.18951,-32.716287 v 32.716287 m 6.18952,-32.716287 v 32.716287 m 6.18951,-32.716287 v 32.716287 m 6.18734,-32.716287 v 32.716287 m 6.2004,-32.716287 v 32.716287 m 6.20039,-32.716287 v 32.716287 m 6.2004,-32.716287 v 32.716287 m 6.18734,-32.716287 v 32.716287 m 6.18951,-32.716287 v 32.716287 m 6.2004,-32.716287 V 110.69977 M 948.4669,77.983483 V 110.69977 M 558.58179,77.983483 v 32.716287 m 6.18951,-32.716287 v 32.716287 m 6.2004,-32.716287 v 32.716287 m 6.18951,-32.716287 v 32.716287 m 6.18952,-32.716287 v 32.716287 m 6.18951,-32.716287 v 32.716287 m 6.18952,-32.716287 v 32.716287 m 6.18734,-32.716287 v 32.716287 m 6.20039,-32.716287 v 32.716287 m 6.17864,-32.716287 v 32.716287 m 6.20039,-32.716287 v 32.716287 m 6.18734,-32.716287 v 32.716287 m 6.18952,-32.716287 v 32.716287 m 6.20039,-32.716287 v 32.716287 m 6.18952,-32.716287 v 32.716287 m 6.18952,-32.716287 v 32.716287 m 6.18952,-32.716287 v 32.716287 m 6.18951,-32.716287 v 32.716287 m 6.18951,-32.716287 v 32.716287 m 6.2004,-32.716287 v 32.716287 m 6.18734,-32.716287 v 32.716287 m 6.20039,-32.716287 v 32.716287 m 6.2004,-32.716287 v 32.716287 m 6.18734,-32.716287 v 32.716287 m 6.20038,-32.716287 v 32.716287 m 6.18953,-32.716287 v 32.716287 m 6.18951,-32.716287 v 32.716287 m 6.18952,-32.716287 v 32.716287 m 6.18951,-32.716287 v 32.716287 m 6.18952,-32.716287 v 32.716287 m 6.20039,-32.716287 v 32.716287 m 6.18952,-32.716287 v 32.716287"
       stroke-width=".229"
       id="path14"
       style="stroke:#d3e0e9;stroke-width:0.44736;stroke-miterlimit:4;stroke-dasharray:none;stroke-opacity:1" />
  </g>
</svg>
